<svg width="82" height="64" viewBox="0 0 82 64" fill="none" xmlns="http://www.w3.org/2000/svg">
<path d="M45.3166 56.7748L45.3166 20.6135C45.3222 15.384 47.2996 10.3705 50.815 6.67275C54.3304 2.97499 59.0967 0.894997 64.0683 0.889088C64.8972 0.889088 65.6921 1.23543 66.2782 1.85194C66.8643 2.46844 67.1936 3.30461 67.1936 4.17648C67.1936 5.04835 66.8643 5.88451 66.2782 6.50102C65.6921 7.11753 64.8972 7.46387 64.0683 7.46387C60.7539 7.46779 57.5764 8.85445 55.2328 11.3196C52.8891 13.7848 51.5709 17.1272 51.5671 20.6135V23.9009L75.0068 23.9009C76.6639 23.9029 78.2527 24.5962 79.4245 25.8288C80.5963 27.0614 81.2554 28.7325 81.2573 30.4756V56.7748C81.2554 58.5179 80.5963 60.1891 79.4245 61.4217C78.2527 62.6543 76.6639 63.3476 75.0068 63.3496L51.5671 63.3496C49.91 63.3476 48.3212 62.6543 47.1494 61.4217C45.9776 60.1891 45.3185 58.5179 45.3166 56.7748ZM6.25056 63.3496H29.6902C31.3473 63.3476 32.9361 62.6543 34.1079 61.4217C35.2797 60.1891 35.9388 58.5179 35.9407 56.7748L35.9407 30.4756C35.9388 28.7325 35.2797 27.0614 34.1079 25.8288C32.9361 24.5962 31.3473 23.9029 29.6902 23.9009H6.25056V20.6135C6.25429 17.1272 7.57256 13.7848 9.91618 11.3196C12.2598 8.85445 15.4373 7.46779 18.7517 7.46387C19.5806 7.46387 20.3755 7.11753 20.9616 6.50102C21.5477 5.88451 21.877 5.04835 21.877 4.17648C21.877 3.30461 21.5477 2.46844 20.9616 1.85194C20.3755 1.23543 19.5806 0.889088 18.7517 0.889088C13.7802 0.894997 9.01386 2.97499 5.49846 6.67275C1.98305 10.3705 0.00563049 15.384 7.62939e-06 20.6135V56.7748C0.00189972 58.5179 0.661049 60.1891 1.83284 61.4217C3.00464 62.6543 4.59339 63.3476 6.25056 63.3496Z" fill="#43B774"/>
</svg>
